<svg xmlns="http://www.w3.org/2000/svg" xmlns:xlink="http://www.w3.org/1999/xlink" width="1920" height="460" viewBox="0 0 1920 460"><defs><clipPath id="a"><rect width="1920" height="460" fill="#17191e"></rect></clipPath></defs><g clip-path="url(#a)"><path d="M212.914,445.379c90.989-5.1,181.936-12.093,273.237-8.3q81.827,3.4,163.61,7.743c72.374,3.743,144.8,3.574,217.242,4.151,91.857.726,183.682,3.513,275.54,5.136,69.589,1.234,138.729-4.9,207.869-11.436,68.828-6.51,137.571-15.875,207-13.268,41.966,1.573,83.771,6.37,125.726,8.639q70.452,3.807,141.043,5.564c65.348,1.6,130.728,2.369,196.1,3.454V460H0V448.026c9.523.538,19.067,1.135,28.621,1.434,61.513,1.97,122.909-.647,184.293-4.081M239.7,374.315c61.943-8.022,123.926-12.242,186.532-8.739,48.328,2.707,96.806,3.046,145.156,5.484,34.2,1.722,68.249,6.42,102.45,7.574,43.582,1.473,87.284,1.742,130.878.627,48.2-1.224,95.863,2.3,143.388,8.888,51.723,7.166,103.393,14.621,155.149,21.578,65.916,8.868,130.781,3.036,194.811-12.968,55.311-13.835,110.366-28.675,166.041-41.076,26.243-5.853,53.6-8.072,80.611-10.033,23.383-1.7,46.475,3.066,68.819,9.406,56.339,15.974,114.071,21.538,172.64,19.975,43.154-1.154,86.244-4.309,129.4-5.524,34.875-.985,69.793-.686,104.7-.846v38.628c-17.18-.786-34.189-1.7-51.2-1.712-57.357-.02-114.715.8-172.072.886-55.857.089-111.791-1.921-166.2-14.074-64.084-14.3-127.365-10.321-190.967.826-58.107,10.182-116.15,20.712-174.408,30.148-52.944,8.569-106.424,9-159.915,5.394-66.312-4.469-132.559-9.764-198.892-13.814-28.919-1.762-58.033-2.2-87.016-1.653-65,1.235-129.753-2.279-194.426-7.355-105.374-8.261-210.824-10.988-316.37-4.15-46.712,3.016-93.261,8.062-139.951,11.436C112.466,417.292,56.115,417.451,0,409.488V370.98c33.108,8.162,66.891,11.844,101.069,12.631,46.53,1.075,92.683-3.334,138.633-9.3m-5.944-68.646c49.174-9.495,98.455-12.76,148.474-6.9a370.25,370.25,0,0,0,52.645,1.97c46.294-1.244,225.821,15.985,269.8,17.8,27.9,1.155,56.106-1.761,84.04-4.16a338.265,338.265,0,0,1,123.273,11.774c43.8,12.591,86.962,27.072,130.5,40.449,45.939,14.113,92.4,25.609,141.568,22.245A374.683,374.683,0,0,0,1287.72,366.3c44.354-16.254,88.141-33.841,132.355-50.442,35.218-13.218,71.324-23.6,109.274-27.938a150.2,150.2,0,0,1,78,11.545c52.709,22.624,108.479,28.764,165.9,25.052,42.062-2.727,83.074-11.346,124.248-19.11,40.573-7.654,81.243-14.65,122.779-14.889v38.637c-.246-.01-.494-.01-.739-.02-41.259-.925-82.078,3.6-122.942,8.042-38.334,4.17-76.689,8.5-115.174,10.948-62.359,3.962-123.113-4.04-181.284-25.967-24.8-9.346-50.255-9.6-76.176-6.539-48.833,5.773-94.954,20.662-141.117,35.642-41.131,13.347-82.282,26.8-124.1,38.1-59.671,16.113-120.123,14.591-180.309,1.433-43.1-9.426-86.042-19.478-129.067-29.192C896.917,349.751,844.027,343.53,789.8,347.113c-66.7,4.409-133.331,2.21-199.824-4.7-47.482-4.936-95.093-7.713-142.97-7.036-24.625.348-49.324-1.225-73.927-2.837-44.6-2.916-88.5,2.249-132.346,8.58-42.244,6.1-84.531,11.6-127.451,10.928C74.314,351.443,36.45,345.481,0,332.681V294.144C33.762,309.69,69.58,317.8,107.41,318.936c42.844,1.284,84.724-5.225,126.347-13.267m-126.765-75.6c25.557-1.582,49.839-8.151,73.724-16.183,25.534-8.589,50.845-17.776,76.562-25.838,32.1-10.052,65.079-14.78,99.162-12.153,32.315,2.5,177.2,18.642,216.62,27.928,44.235,10.431,88.226,22.484,133.865,26.187,23.565,1.911,47.5,1.343,71.185.179,36.652-1.792,72.9-.816,107.26,12.133,26.371,9.943,52.281,21.14,77.677,33.093,36.213,17.05,71.132,36.388,108.995,50.472,49.773,18.5,99.869,19.915,150.833,5.076C1270.818,317,1315.4,296.005,1360,275.034c41.741-19.647,83.4-39.5,128.949-50.82,22.8-5.663,45.79-10.013,69.665-7.435,17.009,1.832,31.823,8.9,46.4,16.413,55.291,28.475,114.19,36.9,176.228,27.181,33.012-5.165,64.437-15.556,95.724-26.276,36.6-12.54,72.92-26.027,111.469-32.785,10.442-1.821,21-3.065,31.844-4.359v39.085c-9.007.528-17.887,1.065-26.7,2.11-40.7,4.857-79.8,16.094-119.064,26.565-40.873,10.888-81.874,21.12-124.708,22.643-50.973,1.8-99.73-6.659-144.973-28.9C1577.462,245,1549,242.4,1519.077,246.877c-38.453,5.753-74.5,18.323-109.671,33.223-43.594,18.463-86.652,38.09-130.653,55.667-41.237,16.482-84.4,26.136-129.913,23.9-30.687-1.5-60.2-8.3-88.451-18.761-43.444-16.074-86.2-33.751-129.367-50.482-36.161-14.014-73.008-26.445-112.787-26.495-22.1-.029-44.214,2.419-66.28,4.191-36.224,2.906-72.14.209-107.934-4.638-46.541-6.3-92.983-13.318-139.608-19.08-20.329-2.508-123.135-5.435-153.788-8.53-35.967-3.623-71.067.756-105.911,8.689-33.461,7.614-66.772,15.945-100.533,22.245C92.361,276.467,44.516,265.21,0,239.95V200.815c32.53,19.1,67.244,31.71,106.993,29.251M15.382,122.4c36.889,12.72,74.172,15.009,112.165,4.111C162.84,116.377,194.331,99.3,225.467,81.5c39.855-22.792,79.594-45.793,123.755-61.071C388.456,6.855,428.644.555,470.235,8.477,505.3,15.146,537.4,29.06,567.886,46c35.647,19.806,70.512,40.807,106.136,60.663,31.66,17.647,65.036,31.979,101.626,38.349,17.468,3.046,35.366,3.892,52.944,6.479,37.521,5.514,71.689,19.568,104.443,36.787,35.154,18.482,69.739,37.91,105.225,55.816,28.224,14.232,58.44,24.026,90.594,27.609,46.615,5.2,90.862-4.14,132.421-22.513,42.618-18.831,83.91-40.25,125.607-60.843,38.978-19.249,78.4-37.293,122.063-45.843,23.307-4.558,45.982-3.6,67.64,5.882,17.533,7.694,34.575,16.333,51.99,24.246,61.343,27.838,124.569,32.327,188.685,10.181,34.6-11.953,68.068-26.713,101.958-40.389,32.573-13.148,65.541-24.852,101.058-28.3v39.344c-9.693,1.3-19.194,2.588-28.566,4.479-36.375,7.345-70.038,21.7-103.833,35.651-36.1,14.91-72.245,29.919-111.543,36.14-60.849,9.624-117.607-1.1-170.209-31-15.38-8.748-30.74-17.408-49.142-20.085-20.157-2.926-39.63.448-58.974,4.728-45.993,10.2-87.562,30.207-128.789,50.849-39.973,20.026-79.9,40.151-122.148,55.886-42.415,15.8-85.9,25.1-131.831,17.159-32.218-5.583-61.888-17.726-90.207-32.616-34.95-18.383-69.247-37.851-104.422-55.836-38.132-19.508-78.907-30.635-122.983-31.013-64.512-.548-125.361-15.975-184.047-40.15-42.961-17.687-85.806-36.14-131.96-45.675-48.842-10.082-98.231-15.9-148.165-7.106-28.255,4.977-54.412,15.666-80.022,27.51-32.465,15.019-64.479,30.964-97.48,44.9-52.805,22.3-104.389,17.836-153.992-9.515-.642-.359-1.3-.707-1.96-1.065v-40.18c5.259,1.542,10.187,4.071,15.382,5.872" transform="translate(-100.276)" fill="#17191e"></path></g></svg>